# xmcd CD database file
#
# Track frame offsets:
#	150
#	17862
#	30457
#	56682
#	69377
#	90740
#	109102
#	133837
#	148910
#	169870
#	194627
#	216582
#	239227
#	259352
#	287357
#	306210
#
# Disc length: 4357 seconds
#
# Revision: 5
# Processed by: cddbd v1.5.2PL0 Copyright (c) Steve Scherf et al.
# Submitted via: CDex 1.51
#
DISCID=02110310
DTITLE=Boyz II Men - LEGACY(The Greatest Hits Collection)
DYEAR=2002
DGENRE=R&B
TTITLE0=Motownphilly
TTITLE1=It's So Hard To Say Goodbye To Yesterday
TTITLE2=End Of The Road
TTITLE3=In The Still Of The Nete(I'll Remember)
TTITLE4=Hey Lover 
TTITLE5=I'll Make Love To You
TTITLE6=On Bended Knee
TTITLE7=Water Runs Dry
TTITLE8=One Sweet Day
TTITLE9=Doin' Just Fine
TTITLE10=4 Seasons Of Loneliness
TTITLE11=A Song For Mama
TTITLE12=Pass You By
TTITLE13=Rose And A Honeycomb
TTITLE14=Thank You In Advance
TTITLE15=Thank You
EXTD=YEAR: 2002
EXTT0=
EXTT1=
EXTT2=
EXTT3=
EXTT4=
EXTT5=
EXTT6=
EXTT7=
EXTT8=
EXTT9=
EXTT10=
EXTT11=
EXTT12=
EXTT13=
EXTT14=
EXTT15=
PLAYORDER=
